<svg viewBox="0 0 1480 1000" xmlns="http://www.w3.org/2000/svg">
<rect x="0" y="0" width="1480" height="1000" fill="#ffffff"/>
<text x="50" y="58" font-family="Inter,Segoe UI,sans-serif" font-size="32" font-weight="800" fill="#111">MONAI — what the data says (before building anything)</text>
<text x="50" y="88" font-family="Inter,Segoe UI,sans-serif" font-size="15" fill="#777">pulled live from Project-MONAI/MONAI · GitHub API + git history</text>
<rect x="50" y="120" rx="14" width="660" height="300" fill="#e7f1fb" stroke="#1971c2" stroke-width="2"/><text x="76" y="160" font-family="Inter,Segoe UI,sans-serif" font-size="21" font-weight="700" fill="#1971c2">MATURE &amp; CONVENTION-HEAVY</text><text x="76" y="196" font-family="Inter,Segoe UI,sans-serif" font-size="16" fill="#1e1e1e">3,360 merged PRs · ~278 contributors</text><text x="76" y="225" font-family="Inter,Segoe UI,sans-serif" font-size="16" fill="#1e1e1e">120KB array.py · ruff/black/isort/mypy/pytype</text><text x="76" y="254" font-family="Inter,Segoe UI,sans-serif" font-size="16" fill="#1e1e1e">elaborate conventions: array+dict pair, 5-file wiring</text><text x="76" y="283" font-family="Inter,Segoe UI,sans-serif" font-size="16" fill="#1e1e1e">expanding: Bundle·Auto3DSeg·Deploy·Generative·FL</text>
<rect x="770" y="120" rx="14" width="660" height="300" fill="#f6ecfb" stroke="#9c36b5" stroke-width="2"/><text x="796" y="160" font-family="Inter,Segoe UI,sans-serif" font-size="21" font-weight="700" fill="#9c36b5">TINY CORE + LONG TAIL</text><text x="796" y="196" font-family="Inter,Segoe UI,sans-serif" font-size="16" fill="#1e1e1e">~278 contributors · 310 author emails</text><text x="796" y="225" font-family="Inter,Segoe UI,sans-serif" font-size="16" fill="#1e1e1e">top-12 humans = 83% of all commits</text><text x="796" y="254" font-family="Inter,Segoe UI,sans-serif" font-size="16" fill="#1e1e1e">NVIDIA-led (wyli 833, Nic-Ma 710) · KCL-anchored</text><rect x="798" y="295" width="13" height="95" rx="2" fill="#9c36b5" opacity="0.8"/><rect x="815" y="310" width="13" height="80" rx="2" fill="#9c36b5" opacity="0.8"/><rect x="832" y="364" width="13" height="26" rx="2" fill="#9c36b5" opacity="0.8"/><rect x="849" y="369" width="13" height="21" rx="2" fill="#9c36b5" opacity="0.8"/><rect x="866" y="375" width="13" height="15" rx="2" fill="#9c36b5" opacity="0.8"/><rect x="883" y="377" width="13" height="13" rx="2" fill="#9c36b5" opacity="0.8"/><rect x="900" y="380" width="13" height="10" rx="2" fill="#9c36b5" opacity="0.8"/><rect x="917" y="384" width="13" height="6" rx="2" fill="#9c36b5" opacity="0.8"/><rect x="934" y="385" width="13" height="5" rx="2" fill="#9c36b5" opacity="0.8"/><rect x="951" y="385" width="13" height="5" rx="2" fill="#9c36b5" opacity="0.8"/><rect x="968" y="387" width="13" height="3" rx="2" fill="#9c36b5" opacity="0.8"/><rect x="985" y="387" width="13" height="3" rx="2" fill="#9c36b5" opacity="0.8"/><rect x="1002" y="387" width="13" height="3" rx="2" fill="#9c36b5" opacity="0.8"/><rect x="1019" y="387" width="13" height="3" rx="2" fill="#9c36b5" opacity="0.8"/><rect x="1036" y="387" width="13" height="3" rx="2" fill="#9c36b5" opacity="0.8"/><rect x="1053" y="387" width="13" height="3" rx="2" fill="#9c36b5" opacity="0.8"/><rect x="1070" y="387" width="13" height="3" rx="2" fill="#9c36b5" opacity="0.8"/><rect x="1087" y="387" width="13" height="3" rx="2" fill="#9c36b5" opacity="0.8"/><rect x="1104" y="387" width="13" height="3" rx="2" fill="#9c36b5" opacity="0.8"/><rect x="1121" y="387" width="13" height="3" rx="2" fill="#9c36b5" opacity="0.8"/><text x="798" y="408" font-family="Inter,sans-serif" font-size="11" fill="#777">commits per contributor — a steep power law</text>
<rect x="50" y="460" rx="14" width="660" height="300" fill="#e9f7ee" stroke="#2f9e44" stroke-width="2"/><text x="76" y="500" font-family="Inter,Segoe UI,sans-serif" font-size="21" font-weight="700" fill="#2f9e44">WHAT THE CORE ACTUALLY DOES</text><text x="76" y="536" font-family="Inter,Segoe UI,sans-serif" font-size="16" fill="#1e1e1e">infra / release / CI · bundle · tests · auto3dseg</text><text x="76" y="565" font-family="Inter,Segoe UI,sans-serif" font-size="16" fill="#1e1e1e">adding transforms: 1-3 PRs each (rare)</text><text x="76" y="594" font-family="Inter,Segoe UI,sans-serif" font-size="16" fill="#1e1e1e">contribution mix:</text><text x="76" y="623" font-family="Inter,Segoe UI,sans-serif" font-size="16" fill="#1e1e1e">   ~1/3 fixes · ~1/3 maintenance · 15% additions</text>
<rect x="770" y="460" rx="14" width="660" height="300" fill="#fdecec" stroke="#e03131" stroke-width="2"/><text x="796" y="500" font-family="Inter,Segoe UI,sans-serif" font-size="21" font-weight="700" fill="#e03131">THE BOTTLENECK = REVIEW</text><text x="796" y="536" font-family="Inter,Segoe UI,sans-serif" font-size="16" fill="#1e1e1e">159 open PRs · merge median 13d · p90 87d</text><text x="796" y="565" font-family="Inter,Segoe UI,sans-serif" font-size="16" fill="#1e1e1e">net-new features sit 400-500 days</text><text x="796" y="594" font-family="Inter,Segoe UI,sans-serif" font-size="16" fill="#1e1e1e">347 open issues · median age 829 days</text><text x="796" y="623" font-family="Inter,Segoe UI,sans-serif" font-size="16" fill="#1e1e1e">mostly feature requests (~3% no-code Qs)</text>
<rect x="50" y="800" rx="14" width="1380" height="120" fill="#fff7e6" stroke="#f08c00" stroke-width="3"/>
<text x="76" y="834" font-family="Inter,sans-serif" font-size="20" font-weight="700" fill="#f08c00">PRIORITIZE (by evidence)</text>
<text x="76" y="862" font-family="Inter,sans-serif" font-size="15" fill="#1e1e1e">1) ACCELERATE REVIEW for everyone - enforce standards on every incoming PR   (biggest lever)</text>
<text x="76" y="888" font-family="Inter,sans-serif" font-size="15" fill="#1e1e1e">2) CUT NEWCOMER RAMP - the brief&#x27;s Req 1 (and the most demoable)</text>
<text x="76" y="914" font-family="Inter,sans-serif" font-size="15" fill="#1e1e1e">deprioritized w/ evidence:  testing (mature + CI-enforced) · issue-deflection (~3% no-code)</text>
</svg>